<?xml version="1.0" standalone="no"?>
<!DOCTYPE svg PUBLIC "-//W3C//DTD SVG 20010904//EN"
 "http://www.w3.org/TR/2001/REC-SVG-20010904/DTD/svg10.dtd">
<svg version="1.0" xmlns="http://www.w3.org/2000/svg"
 width="400.000000pt" height="400.000000pt" viewBox="0 0 400.000000 400.000000"
 preserveAspectRatio="xMidYMid meet">
<metadata>
Created by potrace 1.11, written by Peter Selinger 2001-2013
</metadata>
<g transform="translate(0.000000,400.000000) scale(0.100000,-0.100000)"
fill="#000000" stroke="none">
<path d="M1770 3955 c-764 -95 -1402 -617 -1639 -1341 -133 -407 -133 -831 0
-1238 193 -590 665 -1062 1255 -1255 407 -133 831 -133 1238 0 590 193 1062
665 1255 1255 133 407 133 831 0 1238 -193 590 -665 1062 -1255 1255 -277 91
-574 121 -854 86z m1598 -904 c98 -50 154 -141 155 -251 0 -161 -116 -280
-274 -280 -240 0 -361 297 -191 473 37 39 75 63 122 78 42 14 142 3 188 -20z
m-616 -248 c18 -16 151 -135 295 -265 145 -131 267 -238 272 -238 5 0 55 54
111 121 127 148 141 159 196 159 78 0 135 -73 120 -153 -9 -46 -317 -405 -369
-431 -58 -28 -94 -12 -207 89 -52 47 -97 82 -101 77 -19 -20 -199 -275 -199
-281 0 -4 29 -29 65 -55 93 -68 129 -152 94 -219 -7 -12 -84 -122 -171 -243
-176 -245 -193 -261 -272 -252 -80 9 -136 84 -123 165 4 23 44 88 117 188 60
85 112 160 115 168 5 12 -58 67 -77 67 -3 0 -126 -167 -273 -370 -171 -237
-278 -376 -296 -385 -47 -25 -112 -19 -150 12 -59 50 -73 117 -39 181 10 20
224 318 473 662 l454 625 -46 48 c-25 26 -51 46 -57 45 -6 -2 -55 -55 -108
-118 -126 -149 -139 -160 -198 -160 -56 0 -101 32 -118 84 -22 66 -14 79 183
311 158 185 169 195 228 195 37 0 55 -6 81 -27z m-487 -188 l0 -110 -582 -3
-583 -2 0 115 0 115 583 -2 582 -3 0 -110z m-215 -585 l0 -120 -687 2 -688 3
-3 104 c-1 58 0 111 2 118 4 11 133 13 691 13 l685 0 0 -120z m-210 -585 l0
-115 -795 0 -795 0 0 115 0 115 795 0 795 0 0 -115z"/>
</g>
</svg>
